<?xml version="1.0" encoding="utf-8"?>
<!-- Generator: Adobe Illustrator 26.5.1, SVG Export Plug-In . SVG Version: 6.00 Build 0)  -->
<svg version="1.1" xmlns="http://www.w3.org/2000/svg" xmlns:xlink="http://www.w3.org/1999/xlink" x="0px" y="0px"
	 viewBox="0 0 1196.38721 597.83295" style="enable-background:new 0 0 1196.38721 597.83295;" xml:space="preserve">
<style type="text/css">
	.st0{fill:#020202;}
	.st1{fill:#F7F5F6;}
	.st2{fill:#110E0F;}
	.st3{fill:#070707;}
	.st4{fill:none;stroke:#F4061D;stroke-miterlimit:10;}
</style>
<g id="Layer_1">
</g>
<g id="Layer_4">
</g>
<g id="Layer_5">
</g>
<g id="Layer_3">
</g>
<g id="Layer_2">
	<g>
		<path class="st0" d="M50.95829,434.11765c0,0,41.64706,14.47058,142.58824-26.47058c0,0,25.76471-11.64706,38.11765-16.23529
			c12.35294-4.58826,53.99998-24.35294,87.17647-6c0,0,22.94119,11.2941,14.47058,29.64706l1.87729,11.64703
			c0,0,59.88742-10.58823,148.47565-43.05881c0,0,136.67258-40.94119,235.98337-57.88235c0,0,150.84015-25.41177,223.89899-15.17648
			c0,0,79.76471,6.35294,110.11768,54.7059c0,0,0,14.82352-1.76477,21.88235c0,0,55.41187-2.11765,89.29419,47.64703
			c0,0,6.70581,11.29413,6.70581,21.88235c0,0-60.70581-23.64703-74.47058,4.23529c0,0,53.29419,44.11768,34.94116,104.47058
			c0,0-16.58813-37.41174-60.35291-38.47058c0,0-46.94116,1.05884-93.52942,12.70587
			c-46.5882,11.64709-94.5882,21.17651-119.64703,10.23529c0,0-16.94116-6.35291-18.35297-19.41174
			c0,0,0.70593-45.52942-2.47058-54.35294c0,0-97.76471,7.76471-246.35291,39.17648c0,0-87.17648,17.29413-140.47061,33.52942
			S248.95828,586.23529,229.19359,564l-14.11766-31.76471c0,0-118.94117,45.17645-166.58823-1.41174
			c0,0,53.64706-15.88239,62.82353-37.05884C111.31123,493.76471,45.31123,454.58823,50.95829,434.11765z"/>
		<path class="st1" d="M58.37005,442.94116c0,0,47.64706,7.41177,123.17647-23.64703c0,0,37.05882-14.92758,51.88235-21.58145
			c14.82353-6.65384,69.5294-29.4126,93.5294,5.08444c0,0,3.52942,2.37936-3.17645,8.7323
			c-6.7059,6.35294-6.35297,13.76471-46.94119,10.94116c-40.58823-2.82352-81.5294-0.35294-87.5294,16.94119
			c-6,17.2941,23.64705,86.47055,23.64705,86.47055s-6,2.82355-12,2.82355c0,0-18.35294-43.05881-21.88235-45.88235
			c0,0,2.11766,11.64706,19.41177,48.35294L184.72299,534c0,0-7.76471-13.76471-10.23529-13.41174L180.84064,534
			c0,0-78.35294,24-118.23529-1.41174c0,0,51.52941-13.4118,57.17647-39.88239
			C119.78181,492.70587,63.66417,453.88235,58.37005,442.94116z"/>
		<path class="st1" d="M194.95828,451.41177c0,0,3.88235,27.88235,20.11765,63.17648l19.05882,45.88232
			c0,0,13.41177,2.11768,17.64706,1.76471c0,0-1.05882-8.82355,0-10.94116c0,0,3.2645,5.37347,3.74989,10.98083
			c0,0,96.83835,2.078,157.54422-21.922s245.64709-56.47061,321.88239-68.47061s262.5882-32.82352,278.11761,25.76471
			c0,0,7.41174-4.58823,15.88232-40.58823s16.23535-69.52942,16.58826-88.94119c0,0-9.17651-18.70587-26.47058-26.82352
			c0,0-4.58826,8.47058-4.94116,6.35294c-0.35297-2.11765-1.41174-10.58823-1.41174-10.58823s-25.05884-14.47061-58.23535-18
			c0,0-3.52936,22.58823-8.82349,27.52939c0,0,2.82349-23.64706,4.5882-27.52939c0,0-41.92596-7.41177-104.7865-2.47061
			c0,0-2.50757,27.17648-4.27228,25.05884S839.07593,318,839.07593,318s-3.17645,11.29413-4.23529,10.94116
			c-1.05884-0.35294-2.11761-11.64703-2.11761-11.64703l-10.23535,0.35294c0,0-1.76465,15.52942-3.88232,18.70587
			c0,0-3.17645,0-2.82355-17.2941c0,0-37.7995,2.82352-44.84088,5.2941c0,0-1.89355,22.94119-3.58514,20.11765
			c-1.69159-2.82352-2.56635-17.64706-2.56635-17.64706s-60.88995,5.29413-144.53705,26.82355c0,0-98.11761,23.64706-151.41174,42
			s-89.64706,28.65842-89.64706,28.65842s2.82355,15.10629-1.05881,18.98865c0,0-6.35294-8.21371-8.82355-16.9892
			c0,0-67.05881,16.28329-144.35294,22.9892c0,0,4.23531,25.05881,0.70589,25.76471c0,0-2.47058-8.11768-5.64706-25.76471
			l-12.35294,1.41174c0,0,5.29411,18.7059,4.23529,20.82355c0,0-6-10.58826-8.47058-20.47058L194.95828,451.41177z"/>
		<path class="st1" d="M1010.25238,515.64703c0,0-83.64703-8.47055-106.94116-11.99997S835.89948,498,826.37006,519.17645
			c0,0-8.11768,14.82355,10.58826,26.11768c0,0,2.82349-22.58826,6.35291-24.35297c0,0-0.70587,19.4118-1.41174,24.35297
			c0,0,27.52942,7.76471,70.23529-2.11768c42.70587-9.88232,100.94116-24.35291,138.35291-21.88232l4.23535-6.70587L1057.54651,522
			c0,0,25.41174-2.11768,46.23535,23.29413c0,0,3.88232-46.94119-38.11768-82.23529c0,0,8.82349-35.64706,72.35291-15.52942
			c0,0-14.82349-47.29413-86.82349-54C1051.1936,393.52942,1043.78186,471.17648,1010.25238,515.64703z"/>
		<g>
			<path class="st2" d="M364.13477,509.98666c-3.50046,10.0112-9.84564,17.01523-19.03214,21.01572
				c-3.32404,1.47736-7.32907,2.46942-12.01431,2.97699c-11.65881,1.26312-21.74991-1.09088-30.27228-7.06299
				c-7.06134-4.82123-11.87524-11.5426-14.44217-20.16315c-1.94849-1.94562-4.52133-3.99786-7.71948-6.15558
				c0.55902-0.21411,2.52039-2.79596,5.884-7.74551c0.37781-8.16782,3.1749-15.32886,8.39059-21.48016
				c6.66522-8.07919,16.13507-12.78467,28.41208-14.11475c7.44513-0.80658,14.56378,0.04047,21.35526,2.54028l2.89392-3.26068
				l4.68527-0.5076l4.47519,26.50037l-4.79453,0.51944c-7.58936-15.12637-16.66855-22.11703-27.23755-20.97202
				c-12.42194,1.34579-18.01224,10.83133-16.76877,28.45544c1.23819,1.13763,2.48199,2.31305,3.73184,3.52524
				c1.92053,1.75671,3.25473,2.67233,4.004,2.74472c-0.6196,0.29846-2.51407,2.83466-5.6824,7.60751
				c0.49237,1.83466,1.35687,4.12021,2.59167,6.85583c1.23553,2.73654,3.27054,5.4534,6.10504,8.15054
				c4.76654,4.53143,10.78149,6.40167,18.04602,5.61469c5.04816-0.54694,9.4007-2.30798,13.05661-5.28601
				c4.2865-3.70001,7.37555-7.63641,9.26767-11.80936L364.13477,509.98666z"/>
			<path class="st2" d="M446.6723,504.52188l-31.44556,8.50089l-1.02835-3.01382l2.80692-1.11768
				c1.30667-0.43274,2.17236-0.84622,2.5976-1.24051c1.58435-1.147,2.03482-2.72458,1.34912-4.73413l-5.98257-17.53326
				l-24.83905,6.71494l5.85199,17.15057c0.67294,1.9722,2.00476,3.08835,3.99542,3.34842
				c1.58658,0.16956,3.62909,0.03638,6.1282-0.4007l1.02838,3.01385l-31.44556,8.50092l-1.02835-3.01385
				c2.68146-0.88391,4.55136-1.68817,5.60938-2.41357c1.51678-1.12872,1.93265-2.69696,1.24698-4.70648l-5.21603-15.28665
				c-1.79907-1.22839-4.07034-2.52893-6.8136-3.90271c0.38492-0.18356,1.45917-2.38956,3.22406-6.61725l-4.71121-13.80728
				c-0.84747-2.48367-3.30289-3.61517-7.36728-3.39417c-1.44394,0.03049-2.4393,0.12015-2.98532,0.26776l-1.06561-3.12305
				l31.44556-8.50092l1.06561,3.12305c-2.1254,0.65509-3.94617,1.49597-5.45953,2.52393
				c-1.51447,1.02823-1.90958,2.60101-1.18698,4.71884l5.38449,15.7804l24.83905-6.71494l-5.2348-15.34171
				c-0.8226-2.41089-3.24448-3.55145-7.26508-3.42178c-1.24796,0.05801-2.2428,0.14752-2.9848,0.26758l-1.06561-3.12302
				l31.44556-8.50092l1.06561,3.12305c-4.59082,1.52142-6.97787,3.10464-7.16205,4.74887
				c-0.07986,0.85959,0.02435,1.71017,0.31067,2.54926l4.8609,14.24597c1.78964,1.31146,4.0607,2.61307,6.81393,3.90363
				c-0.35977,0.25729-1.43539,2.46265-3.2244,6.61633l5.08545,14.90396c0.67294,1.9722,2.00473,3.08835,3.99539,3.34845
				c1.58606,0.16965,3.69775,0.01779,6.33313-0.45612L446.6723,504.52188z"/>
			<path class="st2" d="M519.11389,452.56104c-0.46545,0.27719-1.72864,2.30515-3.79065,6.08417
				c1.21936,6.92065,0.22577,13.10959-2.97894,18.56842c-2.06372,3.54196-4.88739,6.59024-8.47064,9.14578
				c-3.58417,2.55472-7.89728,4.47192-12.94086,5.74896c-5.19107,1.31433-10.01999,1.82251-14.48483,1.52295
				c-9.38605-0.64191-17.13953-4.10056-23.25989-10.37604c-1.00424-1.05704-2.71884-3.42313-5.14328-7.09839
				c-1.85266-1.08072-4.19699-2.19424-7.03333-3.3436c0.46637-0.2764,1.71646-2.34064,3.75311-6.19342
				c-0.34659-1.93805-0.34064-4.53983,0.01593-7.8089c0.99448-8.39362,5.21747-15.08356,12.66812-20.06866
				c3.67041-2.47812,8.06384-4.3649,13.18204-5.66083c4.30731-1.09058,8.71802-1.47256,13.23325-1.14618
				c5.99063,0.42987,11.44971,2.10565,16.37756,5.02829c5.28461,3.03125,9.21902,7.07932,11.80185,12.14554
				C513.92047,450.26282,516.27728,451.41278,519.11389,452.56104z M496.49496,458.88483
				c-1.1814-3.43481-2.53973-6.62592-4.07361-9.57465c-3.34125-6.22302-7.49692-10.21609-12.46429-11.97678
				c-2.6134-0.96725-5.28284-1.10535-8.00693-0.41562c-5.74368,1.45428-9.20795,4.79468-10.39175,10.01886
				c-1.18518,5.22559-0.36319,11.94846,2.4646,20.16998c2.60138,7.56335,5.89554,13.24313,9.88303,17.03925
				c2.10553,2.0499,4.40564,3.47202,6.90158,4.27008c2.49594,0.7981,5.43668,0.76904,8.82468-0.08881
				c2.46585-0.62433,4.53452-1.88293,6.20541-3.77563c3.1217-3.49115,4.19501-8.68839,3.22217-15.59229
				C498.58173,465.82437,497.72644,462.4653,496.49496,458.88483z M490.91711,460.29712l-6.77054,12.08084l-13.44168-6.96317
				l6.5235-13.15094L490.91711,460.29712z"/>
			<path class="st2" d="M576.48792,428.80051c2.26532,9.13889-1.99744,15.62024-12.78699,19.44492
				c-3.28748,1.20511-7.00641,2.11023-11.15906,2.71573l-5.02704,0.73297l10.41223,42.46124l-3.16925,0.4621
				c-1.34967-2.09369-3.43915-4.24338-6.26807-6.44522c-2.83032-2.20264-5.78406-3.27032-8.86176-3.203l-7.43896-30.01035
				c-1.74042-1.38702-3.96375-2.89484-6.66968-4.52444c0.41901-0.13718,1.76501-2.16641,4.03937-6.08688l-3.45221-13.92722
				c-0.63922-2.57867-3.07147-3.94189-7.29785-4.08948c-1.4118-0.06143-2.45441-0.08109-3.12866-0.05984l-0.78082-3.15018
				l34.25922-4.99527C565.03943,415.81,574.15002,419.36884,576.48792,428.80051z M560.00201,433.32309
				c-1.10474-4.45694-2.97382-7.27676-5.60724-8.45944c-2.01367-0.96576-5.33368-1.11185-9.95874-0.43747l-3.55194,0.51791
				l5.47974,22.10672l1.74872-0.255c5.53632-0.80722,9.02856-2.02173,10.47552-3.64618
				C560.56268,440.7634,561.03424,437.48721,560.00201,433.32309z"/>
			<path class="st2" d="M744.16034,442.8371c-8.70819,1.20706-16.84448,0.48306-24.40747-2.17108l-3.07428,4.01617l-4.53326,0.62839
				l-5.8338-25.0546l4.64197-0.64343c3.88135,5.67099,8.06848,10.10254,12.56018,13.29483
				c0.89508,0.58685,3.64594,1.66385,8.25403,3.23181c3.0199,1.03967,6.34833,1.30801,9.98248,0.80426
				c4.85803-0.67337,8.36847-2.29086,10.53375-4.85391s2.99377-5.10065,2.48724-7.61081
				c-1.04248-5.16614-6.35773-8.41293-15.9483-9.73996c-3.66699-0.57523-9.15338-1.46042-16.45911-2.65555
				c-10.88965-2.26797-17.289-8.13223-19.198-17.59277c-1.13794-5.63901,0.47369-10.89307,4.8374-15.76254
				c4.36261-4.86823,10.95111-7.91321,19.76794-9.13535c7.52057-1.04242,14.73535-0.39682,21.64185,1.93716l2.76318-3.35687
				l4.64197-0.64343l5.21191,23.62738l-4.64197,0.6434c-4.12897-6.16019-7.90424-10.57388-11.32855-13.24176
				c-4.6582-3.65527-9.79346-5.09396-15.40833-4.31567c-3.45428,0.47879-6.2691,1.74747-8.44159,3.8067
				c-2.48352,2.36356-3.39331,5.18356-2.73254,8.45825c1.00592,4.98492,6.20642,8.21011,15.60132,9.67453l8.5932,1.33414
				c3.04022,0.40195,5.66254,0.84201,7.86743,1.3223c11.43646,2.22964,18.09515,8.00174,19.97473,17.31647
				c1.30688,6.47644-0.51208,12.1329-5.45422,16.97012C760.96002,438.28302,753.66028,441.52029,744.16034,442.8371z"/>
			<path class="st2" d="M863.42889,429.24072l-35.00995,2.78635l-0.38287-3.0419l3.20819-0.59125
				c1.47375-0.19083,2.47919-0.43878,3.0166-0.7428c1.93097-0.82437,2.76886-2.24997,2.51349-4.27902l-2.22809-17.70163
				l-27.65558,2.20105l2.17938,17.31473c0.25055,1.991,1.39142,3.2789,3.42365,3.86249
				c1.62769,0.42917,3.80438,0.6467,6.5329,0.65347l0.38293,3.04193l-35.01129,2.78647l-0.38293-3.04193
				c3.0224-0.38983,5.17303-0.83981,6.45306-1.3522c1.85443-0.81827,2.65546-2.24097,2.40002-4.26999l-1.94257-15.4335
				c-1.60718-1.4725-3.69287-3.09464-6.2569-4.8653c0.4472-0.11023,2.08582-2.02875,4.92004-5.75592l-1.75452-13.93918
				c-0.31555-2.5072-2.6347-3.99881-6.95593-4.47485c-1.52472-0.21454-2.59247-0.29639-3.19928-0.24811l-0.39697-3.15387
				l35.01129-2.78647l0.39697,3.15387c-2.38654,0.26459-4.49304,0.75824-6.32233,1.4801
				c-1.82904,0.72406-2.60834,2.15488-2.33911,4.29367l2.00525,15.93127l27.65558-2.20105l-1.94952-15.48895
				c-0.30646-2.43439-2.58728-3.92902-6.84253-4.48386c-1.32532-0.15469-2.39044-0.23785-3.19788-0.24823l-0.39697-3.15387
				l35.00989-2.78638l0.39697,3.15387c-5.17474,0.672-8.05054,1.77682-8.62482,3.31207
				c-0.28241,0.80515-0.3703,1.63098-0.26349,2.47977l1.81018,14.3815c1.57697,1.55066,3.66266,3.17279,6.25702,4.86636
				c-0.43787,0.18414-2.07788,2.10278-4.92017,5.75485l1.89392,15.0466c0.25055,1.991,1.39142,3.2789,3.42365,3.86249
				c1.62769,0.42917,3.88092,0.64059,6.75983,0.63541L863.42889,429.24072z"/>
			<path class="st2" d="M945.93854,398.93228c-0.5343,0.15121-2.41516,1.80728-5.64252,4.96591
				c-1.18683,7.06274-4.21918,12.84671-9.09564,17.3519c-3.14948,2.92679-6.85065,5.17902-11.10345,6.75543
				c-4.25275,1.57529-8.98047,2.34262-14.18176,2.29858c-5.35419-0.04535-10.09247-0.78519-14.21478-2.21841
				c-8.65924-3.02682-14.82324-8.38364-18.48944-16.07037c-0.59204-1.28766-1.41364-4.03397-2.46484-8.24005
				c-1.38654-1.52686-3.22711-3.21329-5.52045-5.05933c0.5343-0.15121,2.41418-1.84509,5.64252-5.08273
				c0.32831-1.97842,1.21216-4.51559,2.6557-7.61261c3.77771-7.93405,10.03357-13.38037,18.76617-16.33777
				c4.30896-1.47864,9.10162-2.19617,14.38074-2.15146c4.44226,0.03763,8.74207,0.79324,12.90216,2.26569
				c5.521,1.95126,10.117,4.9826,13.78937,9.09409c3.97302,4.30869,6.32587,9.26334,7.05579,14.86499
				C941.80365,395.362,943.6438,397.08737,945.93854,398.93228z M922.40833,399.31589
				c0.04395-3.65167-0.1615-7.11194-0.61639-10.3808c-1.0553-6.92484-3.63617-11.88254-7.7384-14.87076
				c-2.14465-1.61115-4.62238-2.4292-7.43188-2.453c-5.92346-0.05017-10.32916,2.32205-13.21576,7.11548
				c-2.88666,4.79459-4.38257,11.56268-4.48779,20.30545c-0.09686,8.04428,1.09741,14.42746,3.58551,19.15076
				c1.29785,2.53732,2.99298,4.51343,5.08398,5.93057c2.0896,1.41599,4.88116,2.13934,8.37598,2.16895
				c2.54333,0.02155,4.92462-0.67746,7.14532-2.09592c4.13275-2.60812,6.90472-7.40369,8.31854-14.38663
				C922.0351,406.61917,922.36249,403.12448,922.40833,399.31589z M916.65552,399.26718l-10.48779,10.05429l-10.35828-10.23083
				l10.61578-11.15948L916.65552,399.26718z"/>
			<path class="st2" d="M1014.38928,385.42838c-1.03357,9.21741-7.74017,14.73483-20.11719,16.55463
				c-3.78448,0.59253-7.8996,0.81995-12.34674,0.68326l-5.38403-0.16547l-4.91718,42.80978l-3.39392-0.10434
				c-0.60828-2.25623-1.94904-4.69437-4.02405-7.3111c-2.07477-2.61896-4.69086-4.16321-7.8468-4.63278l3.39435-30.27084
				c-1.2655-1.64124-2.97699-3.4841-5.13458-5.52753c0.47675-0.06009,2.58698-1.78549,6.33478-5.17609l1.57513-14.04733
				c0.29169-2.60117-1.68616-4.34012-5.93213-5.21683c-1.41541-0.30399-2.46808-0.50449-3.16235-0.60056l0.35638-3.17831
				l36.68671,1.12753C1007.48517,370.89514,1015.45618,375.91418,1014.38928,385.42838z M995.95984,386.93137
				c0.50415-4.49588-0.36719-7.54382-2.61401-9.14267c-1.6969-1.28305-5.02216-1.99957-9.97565-2.15182l-3.80341-0.11691
				l-2.50031,22.29767l1.87225,0.05753c5.92957,0.18225,9.92645-0.38397,11.99225-1.70084
				C993.81354,394.21219,995.48889,391.13153,995.95984,386.93137z"/>
		</g>
		<path class="st1" d="M852.75104,96.19017c-14.88184-25.93506-52.47559-26.66064-52.85156-26.66064
			c-6.7207,0-11.36523,4.95166-11.86719,5.51074l-0.14844,0.16309l-0.13477,0.17432
			c-33.10449,42.61377-101.05371,166.02881-103.93066,171.26123l-3.05273,5.55225l5.71094,2.74609
			c5.94336,2.85744,9.39355,6.87941,10.54785,12.29494c4.11328,19.29492-20.15332,49.43311-22.15918,51.88232
			c-30.38281,27.09082-45.78906,56.40234-45.78906,87.12109c0,22.33496,13.91406,24.07031,18.17871,24.07031
			c3.59668,0,6.35254-0.96484,6.86816-1.1582l5.56738-2.08789l-2.03711-5.58691
			c-8.38281-22.97559,1.33398-41.54199,1.44531-41.74902c18.07617-34.54004,44.69727-42.44727,44.94336-42.51758l2.27148-0.60938
			l143.74023-228.42238c3.15234-4.54004,3.49316-7.80518,3.49316-8.99805v-1.59863L852.75104,96.19017z"/>
		<path class="st1" d="M677.82233,378.53442c-18.88965-0.00586-42.62695-51.30859-42.86133-51.82715
			c-6.33398-14.00098-45.8833-110.62746-55.64111-148.53371c-2.55811-9.93701-5.55762-20.99854-8.4585-31.69629
			c-8.16895-30.12305-15.8877-58.5874-16.01904-69.2998c-1.8042-16.51953,1.75391-48.46582,28.09229-52.54248
			c1.7417-0.26953,3.47168-0.40576,5.14307-0.40576c33.20654,0,38.49072,50.81396,38.98389,56.60791
			c1.15137,13.53516,21.86133,116.72119,29.6582,155.56592c1.73535,8.646,2.97656,14.83203,3.45801,17.30127
			c2.64453,13.54787,19.51562,67.66017,20.96973,72.31447c2.49805,4.96875,17.78418,36.96387,3.92188,49.63965
			c-2.05859,1.88184-4.56348,2.87598-7.24316,2.87598C677.82526,378.53442,677.82428,378.53442,677.82233,378.53442z
			 M588.66559,61.88255c-2.10254,0-3.23682,1.10889-3.23682,1.56201s1.13428,1.56201,3.23682,1.56201
			s3.23682-1.10889,3.23682-1.56201S590.76813,61.88255,588.66559,61.88255z"/>
		<path class="st3" d="M677.42889,327.52942c0,0-18.35297-58.58826-21.17645-73.05885
			c-2.82355-14.47058-31.76471-156.70587-33.17651-173.29407c-1.41174-16.58826-9.88232-57.17651-39.52942-52.58826
			c-29.64703,4.58826-24.70587,48.35291-24.70587,48.35291c0.02875,13.71301,14.875,63.41406,24.35297,100.23535
			c9.47797,36.82123,48.70587,133.05879,55.41174,147.88234S670.01715,384,682.37006,372.70587
			C694.72302,361.4118,677.42889,327.52942,677.42889,327.52942z M588.66559,69.0067c-3.9967,0-7.23669-2.49023-7.23669-5.56219
			c0-3.0719,3.23999-5.56213,7.23669-5.56213c3.99677,0,7.23676,2.49023,7.23676,5.56213
			C595.90234,66.51646,592.66235,69.0067,588.66559,69.0067z"/>
		<path class="st4" d="M689.07593,249.52942c0,0,70.23529-127.76471,103.41174-170.4706c0,0,3.17651-3.52941,7.4118-3.52941
			s35.29413,2.11765,47.64703,23.64706c0,0,0,2.11765-2.47058,5.64706L702.48767,331.41177c0,0-28.94116,7.76471-48.70587,45.52939
			c0,0-11.29413,20.47061-1.76471,46.58826c0,0-16.94116,6.35294-16.94116-17.29413S644.60535,354,679.1936,323.29413
			C679.1936,323.29413,726.48767,267.51797,689.07593,249.52942z"/>
		<path class="st3" d="M677.42889,327.52942c0,0-18.35297-58.58826-21.17645-73.05885
			c-2.82355-14.47058-31.76471-156.70587-33.17651-173.29407c-1.41174-16.58826-9.88232-57.17651-39.52942-52.58826
			c-29.64703,4.58826-24.70587,48.35291-24.70587,48.35291c0.02875,13.71301,14.875,63.41406,24.35297,100.23535
			c9.47797,36.82123,48.70587,133.05879,55.41174,147.88234S670.01715,384,682.37006,372.70587
			C694.72302,361.4118,677.42889,327.52942,677.42889,327.52942z M588.66559,69.0067c-3.9967,0-7.23669-2.49023-7.23669-5.56219
			c0-3.0719,3.23999-5.56213,7.23669-5.56213c3.99677,0,7.23676,2.49023,7.23676,5.56213
			C595.90234,66.51646,592.66235,69.0067,588.66559,69.0067z"/>
		<path class="st3" d="M849.28131,98.18138c-13.75977-23.98096-49.0293-24.65186-49.38184-24.65186
			c-5.06738,0-8.74414,4.02002-8.89844,4.19141l-0.09277,0.11084c-32.89258,42.34131-102.88184,169.45508-103.58496,170.73438
			l-1.01758,1.85059l1.9043,0.91504c7.13574,3.43115,11.29883,8.36086,12.72754,15.07033
			c4.60156,21.60645-21.46484,53.4292-23.18359,55.49561c-29.64746,26.35742-44.67773,54.73047-44.67773,84.33789
			c0,8.77148,2.25684,14.7832,6.70703,17.86719c2.46875,1.70996,5.17188,2.20312,7.46777,2.20215
			c2.99902,0,5.30176-0.84082,5.46777-0.90234l1.85645-0.69629l-0.67969-1.8623
			c-9.08301-24.89355,1.53125-44.74121,1.65918-44.97461c19.08008-36.45898,47.17188-44.4502,47.45117-44.52637l0.75684-0.20312
			L846.7149,105.97044c2.69531-3.85059,2.83203-6.33496,2.83203-6.79395v-0.5332L849.28131,98.18138z M843.38385,103.75804
			L701.19537,329.70923c-4.8916,1.54688-30.80078,11.17676-49.16406,46.2666c-0.4668,0.84473-11.04297,20.49512-2.62012,46.14258
			c-1.9043,0.31738-4.89844,0.4082-7.37207-1.31934c-3.29297-2.2998-4.96289-7.2002-4.96289-14.56348
			c0-28.45117,14.61719-55.85352,43.44531-81.44531l0.19727-0.20215c1.19727-1.41309,29.27051-34.86768,24.13184-59.01465
			c-1.54688-7.27246-5.92676-12.94191-13.03027-16.87697c8.66699-15.67432,71.60547-128.9292,102.19043-168.33838
			c0.33008-0.34131,2.84277-2.82861,5.88867-2.82861c0.26764,0,22.09265,0.41797,37.03809,12.41052L717.31128,285.88232
			L839.94733,92.60661c2.06757,2.03857,3.94061,4.34857,5.51855,6.97516
			C845.30084,100.27171,844.81256,101.7141,843.38385,103.75804z"/>
		<g>
			<g>
				<path class="st3" d="M738.52155,203.80882l-1.47754,2.36035c-0.74316-0.19922-1.37695-0.36328-1.89941-0.49316
					c-0.52441-0.12988-0.98242-0.22559-1.37793-0.28809c-0.39453-0.06152-0.74512-0.09424-1.05371-0.09863
					c-0.30762-0.00293-0.59961,0.01904-0.87793,0.06641c-0.8252,0.12891-1.4707,0.44385-1.93848,0.94336
					c-0.13379,0.11328-0.30469,0.32422-0.51367,0.63379s-0.48828,0.74121-0.83496,1.29541l-1.21094,1.93311l6.67578,2.99902
					l0.36621-0.58447c0.19727-0.31494,0.30859-0.62939,0.33594-0.94385c0.02637-0.31445-0.03906-0.59375-0.19629-0.8374
					c-0.16699-0.22803-0.45605-0.47314-0.86523-0.73389c-0.41016-0.26074-1.06445-0.6123-1.96582-1.05615l1.16895-1.86572
					l11.0293,4.95508l-1.16895,1.86572c-0.88965-0.36133-1.6123-0.62842-2.16992-0.80225
					c-0.55859-0.17383-1.02246-0.26172-1.39062-0.26514c-0.37109-0.00293-0.66797,0.08936-0.89453,0.2749
					c-0.22656,0.1875-0.4502,0.46094-0.67578,0.82031l-0.37988,0.60693l7.50977,3.37402l1.37988-2.20264
					c0.28125-0.44971,0.50684-0.80957,0.67578-1.0791s0.29785-0.50049,0.38672-0.69092
					c0.08789-0.19092,0.14844-0.3501,0.18359-0.479c0.0332-0.12891,0.06445-0.26367,0.08984-0.40625
					c0.02539-0.33447-0.0459-0.66797-0.20898-1.00098c-0.16406-0.33301-0.44434-0.6748-0.84375-1.02686
					s-0.93945-0.73877-1.62109-1.16064c-0.68164-0.4209-1.5293-0.8877-2.53906-1.3999l1.54785-2.47266l9.97656,4.48193
					l-9.89648,15.80176l-3.41016-1.53174l0.46387-0.7417c0.38477-0.61426,0.44629-1.05762,0.18164-1.33008
					c-0.08301-0.11328-0.19531-0.20703-0.33496-0.28076c-0.1416-0.07178-0.53809-0.25537-1.19043-0.54834l-13.16992-5.91602
					c-0.45996-0.20703-0.83496-0.36133-1.12793-0.46387c-0.29199-0.10254-0.53906-0.1416-0.74023-0.11621
					c-0.20215,0.02441-0.37793,0.10889-0.53027,0.25195c-0.15137,0.14258-0.31152,0.34863-0.48047,0.61865l-0.4502,0.71924
					l-3.41016-1.53223l9.84082-15.71191L738.52155,203.80882z"/>
				<path class="st3" d="M755.22174,208.68968l-6.20312-2.78613l1.23926-1.97852c0.98633,0.15625,1.74805,0.21436,2.2832,0.17676
					c0.53516-0.03809,1.04102-0.19043,1.51758-0.45654c0.57129-0.31885,1.02148-0.74023,1.34961-1.26514
					c0.62012-0.98926,0.48242-1.68457-0.41309-2.08643c-0.38672-0.17383-0.74316-0.23389-1.07227-0.17969
					c-0.32812,0.0542-0.69824,0.23779-1.1123,0.55127c-0.38574,0.26953-0.7793,0.53857-1.18164,0.80908
					c-0.40234,0.271-0.79883,0.53369-1.19141,0.78955c-0.39258,0.25537-0.7627,0.48828-1.11035,0.69629
					c-0.34766,0.20898-0.64258,0.38379-0.88574,0.52393c-1.66992,0.88232-3.54297,0.85645-5.62305-0.07764
					c-1.74121-0.78271-2.83008-1.85254-3.2666-3.20996c-0.43457-1.35742-0.16602-2.81543,0.81055-4.37402
					c0.22559-0.35938,0.44824-0.67773,0.66699-0.95312c0.21875-0.27637,0.4668-0.53418,0.74121-0.77637
					c0.27539-0.24023,0.59375-0.47656,0.95508-0.70801s0.80371-0.48926,1.32227-0.77441l-0.83301-0.74854l1.04199-1.66357
					l5.36914,2.41211l-1.09766,1.75342c-0.43262-0.00146-0.80762,0.00244-1.125,0.01318
					c-0.31641,0.01221-0.59961,0.04297-0.84863,0.09473c-0.24805,0.05078-0.48047,0.12451-0.69531,0.21973
					c-0.21484,0.0957-0.44336,0.21387-0.68652,0.35352c-0.25293,0.15625-0.47461,0.3252-0.66699,0.50684
					c-0.19141,0.18408-0.35449,0.37988-0.48535,0.58887c-0.27246,0.43506-0.36621,0.83447-0.2832,1.19727
					c0.08105,0.36328,0.33984,0.64307,0.77637,0.83887c0.41113,0.18457,0.76367,0.23828,1.06055,0.16016
					c0.11133-0.02734,0.21484-0.05762,0.3125-0.09081c0.09863-0.03224,0.22656-0.09962,0.38281-0.20216
					c0.1582-0.10254,0.37988-0.24707,0.66797-0.43457c0.28711-0.1875,0.69824-0.45898,1.23047-0.81543
					c0.58594-0.38867,1.07031-0.71875,1.45605-0.9873c0.38477-0.26855,0.71973-0.4834,1.00586-0.64258
					c0.28613-0.16016,0.54297-0.28418,0.76953-0.37451c0.22656-0.08984,0.46777-0.16406,0.7207-0.22314
					c1.38379-0.37695,2.92188-0.18506,4.61523,0.5752c0.87012,0.39062,1.58984,0.86328,2.15723,1.41602
					c0.56836,0.55273,0.97461,1.15283,1.21973,1.7998c0.24609,0.64844,0.32227,1.33105,0.22852,2.04736
					c-0.09277,0.71729-0.36914,1.44287-0.8291,2.17725c-0.53516,0.85352-1.15625,1.56348-1.86719,2.12695
					c-0.70898,0.56543-1.55078,1.03125-2.52637,1.39941l1.08887,1.00781L755.22174,208.68968z"/>
				<path class="st3" d="M748.51959,190.44359l-3.11914-1.40234c0.27637-0.48926,0.41211-0.95654,0.41016-1.39941
					c-0.00098-0.44189-0.17871-0.90137-0.53125-1.37646c-0.35352-0.4751-0.89746-0.99268-1.63086-1.55322
					c-0.73438-0.56006-1.6875-1.19043-2.86133-1.89014l1.64746-2.62939l6.63965,2.98242l1.94336-3.10254l3.11914,1.40234
					l-1.94238,3.10156l8.74414,3.92773c0.96777,0.43457,1.66699,0.67725,2.10059,0.72803s0.74414-0.07373,0.93164-0.37354
					c0.2168-0.34473,0.09082-0.70312-0.37305-1.0752c-0.46484-0.37109-1.43457-0.88867-2.91016-1.55176l-1.55957-0.70117
					l1.19629-1.91016l2.28516,1.02686c0.62891,0.28271,1.16797,0.5376,1.6123,0.76709c0.44629,0.229,0.82715,0.44824,1.14453,0.6582
					c0.31836,0.21045,0.58887,0.42285,0.80957,0.63721c0.22168,0.21533,0.41211,0.44482,0.57031,0.68799
					c0.85254,1.20898,0.81152,2.56348-0.12695,4.06201c-0.9668,1.54346-2.38184,2.36719-4.24512,2.4707
					c-0.35059,0.01562-0.67773,0.00781-0.9834-0.02393c-0.30566-0.03223-0.65039-0.10059-1.03516-0.20605
					c-0.38281-0.10449-0.81543-0.25537-1.2959-0.45215c-0.48145-0.19727-1.07227-0.45312-1.77441-0.76855l-7.83594-3.52002
					L748.51959,190.44359z"/>
				<path class="st3" d="M765.03717,180.17894c0.35645-0.56934,0.97852-0.9082,1.86914-1.01807
					c0.88965-0.10889,1.79492,0.04297,2.71289,0.45557c0.45898,0.20654,0.86133,0.45508,1.20898,0.74414
					c0.34473,0.29004,0.60938,0.59668,0.79492,0.91943c0.18457,0.32324,0.28418,0.646,0.29883,0.96924
					s-0.06836,0.62793-0.24609,0.91211c-0.36621,0.58498-0.99902,0.9292-1.90137,1.03223
					c-0.90137,0.104-1.83691-0.06152-2.80371-0.49609c-0.43652-0.19531-0.81152-0.43652-1.12891-0.72266
					c-0.31641-0.28613-0.56641-0.59082-0.75195-0.91406c-0.18457-0.32324-0.28516-0.64648-0.29883-0.96973
					C764.77643,180.76878,764.85846,180.4641,765.03717,180.17894z"/>
				<path class="st3" d="M777.5069,172.59007c-0.12988-0.04004-0.2373-0.07812-0.32129-0.11621
					c-0.08496-0.03809-0.13965-0.0625-0.16309-0.07324c-1.16211-0.52148-2.15234-1.06738-2.97363-1.63818
					c-0.82031-0.56982-1.52637-1.22314-2.11914-1.95996c-0.5918-0.73633-1.07129-1.58057-1.43652-2.53174
					c-0.36426-0.95117-0.68848-2.06641-0.97266-3.34619c-0.1543-0.64502-0.31348-1.20654-0.47949-1.68408
					c-0.16504-0.47754-0.37109-0.8916-0.61621-1.2417c-0.24609-0.3501-0.53613-0.65332-0.87207-0.90967
					c-0.33496-0.25586-0.73242-0.48828-1.19141-0.69434c-0.91992-0.41309-1.7832-0.53125-2.58984-0.35645
					c-0.80664,0.17529-1.44043,0.62988-1.90039,1.36426c-0.29102,0.46484-0.4375,0.9082-0.4375,1.32959
					c0,0.42236,0.15625,0.92529,0.47266,1.5083c0.21289-0.28906,0.39453-0.50439,0.54492-0.64746
					c0.15234-0.14307,0.33105-0.25488,0.53613-0.33594c0.70703-0.23877,1.61816-0.1084,2.73047,0.3916
					c0.96777,0.43457,1.62695,0.99023,1.97754,1.66602c0.35156,0.67627,0.32031,1.34424-0.09277,2.00342
					c-0.4502,0.71924-1.1416,1.11865-2.0752,1.19873c-0.93359,0.08057-2.0293-0.16211-3.28711-0.72754
					c-1.0625-0.47754-1.94922-1.06738-2.65625-1.76953c-0.70703-0.70117-1.2207-1.46484-1.54102-2.29102
					c-0.32031-0.8252-0.43164-1.68604-0.33398-2.5835c0.09766-0.89697,0.41309-1.77295,0.94824-2.62744
					c0.55371-0.88379,1.24219-1.61133,2.06445-2.18262s1.72656-0.97656,2.71289-1.21484s2.03027-0.29785,3.13281-0.17676
					c1.10254,0.12012,2.19727,0.4248,3.28613,0.91406c1.9834,0.89111,3.32617,2.1377,4.02734,3.73926
					c0.21973,0.54053,0.35156,1.19434,0.39648,1.96387c0.04688,0.76953-0.00195,1.61133-0.1416,2.52832
					c-0.13965,0.91602-0.24707,1.65527-0.32031,2.21777s-0.0791,1.03027-0.01855,1.40283
					c0.06055,0.37354,0.18262,0.68701,0.36328,0.94092c0.18262,0.25488,0.43359,0.52148,0.75488,0.7998
					c-0.04395-0.42334-0.07715-0.79297-0.0957-1.1084s-0.01172-0.60059,0.02246-0.85352
					c0.03516-0.25342,0.09961-0.49316,0.19531-0.71875c0.0957-0.22656,0.21191-0.45215,0.35254-0.67676
					c0.12207-0.19482,0.22949-0.35352,0.32227-0.47559c0.0918-0.12108,0.21973-0.26514,0.38672-0.43066
					c0.16504-0.16602,0.39551-0.37402,0.69141-0.625c0.29785-0.25,0.70703-0.59473,1.22852-1.03271
					c0.14258-0.12744,0.24707-0.24463,0.3125-0.34912c0.21582-0.34473,0.15918-0.68652-0.1709-1.02734
					c-0.3291-0.33936-1.00195-0.73779-2.01758-1.19434l1.42188-2.27051c0.2998,0.11572,0.56543,0.22559,0.79395,0.32812
					c0.23047,0.10352,0.40625,0.18262,0.52637,0.23633c1.86328,0.83691,3.17188,1.61719,3.92676,2.34082
					c1.5293,1.4165,1.80176,2.91113,0.81641,4.48486c-0.18848,0.2998-0.35938,0.54883-0.51367,0.74805
					c-0.15723,0.19873-0.36621,0.42139-0.62891,0.66797c-0.26367,0.24658-0.61621,0.53955-1.06152,0.87746
					c-0.44336,0.33836-1.05957,0.791-1.84863,1.35838c-0.47559,0.3623-0.8252,0.72363-1.05078,1.08301
					c-0.27246,0.43506-0.12305,0.91504,0.44629,1.43945L777.5069,172.59007z"/>
				<path class="st3" d="M767.87799,141.79515c1.24805-1.99219,3.4248-3.11719,6.53027-3.37402
					c1.4541-0.09521,2.91016,0.00635,4.36328,0.30469c1.45703,0.29883,3.05566,0.83936,4.79688,1.62158
					c1.74219,0.78223,3.18457,1.60791,4.33008,2.47754c1.14453,0.86963,2.07617,1.84082,2.79883,2.91406
					c0.74414,1.14014,1.14355,2.25635,1.2041,3.34912c0.05957,1.09277-0.2207,2.13281-0.84082,3.12207
					c-1.25781,2.00781-3.4375,3.14062-6.54297,3.39648c-1.46484,0.11035-2.93359,0.00684-4.4082-0.30957
					c-1.47461-0.31738-3.13184-0.88867-4.9707-1.71484c-3.28906-1.47656-5.59277-3.24121-6.91113-5.29346
					C766.74615,145.95335,766.62994,143.78831,767.87799,141.79515z M771.39752,143.37621
					c-0.40332,0.64453-0.05566,1.40088,1.04199,2.26855c1.10059,0.86865,3.06348,1.93799,5.89355,3.20898
					c2.83008,1.27148,4.97559,2.05322,6.43555,2.34375c1.45996,0.2915,2.39258,0.11426,2.7959-0.53027
					c0.40332-0.64404,0.06836-1.39453-1.00586-2.25098c-1.0752-0.85791-3.01562-1.91699-5.82129-3.17773
					c-2.90234-1.30371-5.08301-2.1001-6.54492-2.39209C772.73248,142.55589,771.80084,142.73265,771.39752,143.37621z"/>
				<path class="st3" d="M795.66803,143.59398c-0.13086-0.03906-0.23828-0.07812-0.32227-0.11621
					c-0.08496-0.03809-0.13965-0.0625-0.16309-0.07324c-1.16211-0.52148-2.15137-1.06738-2.97363-1.6377
					c-0.82031-0.56982-1.52637-1.22266-2.11914-1.95996c-0.5918-0.73633-1.07129-1.58008-1.43652-2.53223
					c-0.36426-0.9502-0.68848-2.06543-0.97266-3.3457c-0.15332-0.64453-0.3125-1.20605-0.47949-1.68359
					c-0.16504-0.47754-0.37109-0.8916-0.61621-1.24219c-0.24512-0.3501-0.53613-0.65332-0.87109-0.90967
					c-0.33496-0.25537-0.7334-0.48779-1.19238-0.69385c-0.91992-0.41309-1.7832-0.53223-2.58984-0.35742
					c-0.80664,0.17578-1.44043,0.63086-1.90039,1.36475c-0.29102,0.46484-0.4375,0.90771-0.4375,1.32959
					s0.15723,0.92529,0.47363,1.50879c0.21191-0.28906,0.39355-0.50488,0.54395-0.64844
					c0.15234-0.14258,0.33105-0.25439,0.53613-0.33496c0.70801-0.23926,1.61816-0.10938,2.73047,0.39062
					c0.96777,0.43457,1.62695,0.99072,1.97852,1.6665c0.35059,0.67627,0.31934,1.34424-0.09375,2.00342
					c-0.4502,0.71924-1.1416,1.11914-2.0752,1.19922s-2.02832-0.16309-3.28613-0.72754
					c-1.06348-0.47852-1.9502-1.06787-2.65723-1.77002c-0.70703-0.70166-1.2207-1.46484-1.54102-2.29053
					c-0.32031-0.8252-0.43164-1.68652-0.33398-2.58398c0.09766-0.89648,0.41406-1.77344,0.94824-2.62695
					c0.55371-0.88428,1.24219-1.61133,2.06445-2.18311c0.82227-0.5708,1.72656-0.97607,2.71289-1.21484
					c0.98633-0.23828,2.03125-0.29736,3.13281-0.17676c1.10254,0.12061,2.19824,0.4248,3.28613,0.91406
					c1.98438,0.89111,3.32617,2.1377,4.02734,3.73877c0.21973,0.54102,0.35156,1.19531,0.39746,1.96387
					c0.0459,0.76953-0.00293,1.6123-0.14258,2.52881s-0.24707,1.65576-0.32031,2.21826s-0.07812,1.02979-0.01855,1.40234
					c0.06152,0.37354,0.18262,0.68701,0.36328,0.94092c0.18262,0.25439,0.43359,0.52197,0.75488,0.80029
					c-0.04395-0.42383-0.07715-0.79297-0.0957-1.10938c-0.01855-0.31494-0.01172-0.59959,0.02344-0.85352
					c0.03418-0.25293,0.09863-0.49316,0.19434-0.71875s0.21191-0.45166,0.35254-0.67627
					c0.12207-0.19482,0.22949-0.35303,0.32227-0.4751c0.0918-0.12109,0.2207-0.26562,0.38672-0.43115
					c0.16504-0.16553,0.39551-0.37402,0.69238-0.625c0.29785-0.25049,0.70605-0.59473,1.22852-1.03271
					c0.14258-0.12744,0.24609-0.24414,0.3125-0.34961c0.21484-0.34424,0.1582-0.68652-0.17188-1.02637
					c-0.3291-0.33984-1.00195-0.73828-2.01758-1.19482l1.42188-2.27002c0.2998,0.11523,0.56543,0.22461,0.79395,0.32715
					c0.23047,0.10449,0.40625,0.18262,0.52637,0.2373c1.86328,0.83594,3.17188,1.6167,3.92773,2.33984
					c1.52832,1.41699,1.80078,2.91211,0.81543,4.48535c-0.1875,0.2998-0.35938,0.54883-0.51367,0.74805
					c-0.15723,0.19922-0.36523,0.42188-0.62891,0.66797c-0.2627,0.24707-0.61621,0.53955-1.06055,0.87744
					c-0.44434,0.33838-1.06055,0.79053-1.84961,1.35791c-0.47461,0.36328-0.8252,0.72412-1.0498,1.08398
					c-0.27246,0.43457-0.12402,0.91455,0.44629,1.43896L795.66803,143.59398z"/>
				<path class="st3" d="M786.03912,112.80003c1.24805-1.99316,3.42383-3.11719,6.5293-3.37451
					c1.45508-0.09521,2.91016,0.00635,4.36328,0.30469c1.45703,0.29932,3.05566,0.83936,4.79688,1.62158
					c1.74219,0.78223,3.18457,1.6084,4.33008,2.47754c1.14453,0.87012,2.07617,1.84082,2.7998,2.91406
					c0.74316,1.14062,1.14355,2.25635,1.20312,3.34863c0.06055,1.09277-0.2207,2.1333-0.84082,3.12207
					c-1.25781,2.00879-3.4375,3.14111-6.54297,3.39697c-1.46484,0.11084-2.93359,0.00732-4.4082-0.30957
					s-3.13086-0.88818-4.9707-1.71436c-3.28906-1.47754-5.5918-3.2417-6.91113-5.29395
					C784.90631,116.95775,784.7901,114.7932,786.03912,112.80003z M789.55865,114.38109
					c-0.4043,0.64453-0.05664,1.40039,1.04102,2.26855c1.10059,0.86816,3.06445,1.9375,5.89453,3.20898
					s4.97559,2.05273,6.43457,2.34375c1.46094,0.29102,2.39258,0.11426,2.7959-0.53027s0.06934-1.39453-1.00586-2.25195
					c-1.07422-0.85742-3.01562-1.91602-5.82129-3.17676c-2.90234-1.30371-5.08301-2.10059-6.54395-2.39258
					C790.89362,113.56029,789.96198,113.73656,789.55865,114.38109z"/>
			</g>
		</g>
		<g>
			<g>
				<path class="st1" d="M594.74908,402.36255l-1.3291-2.80664c-4.20361-8.875-12.04053-18.77637-23.29297-29.42871
					c-10.91406-10.33105-24.21924-16.53906-39.5459-18.45215l-4.45557-0.55664l0.45752-27.07227
					c-13.91406,2.0752-31.91064,3.12598-53.62793,3.12598c-4.12305,0-8.45166-0.03711-12.86475-0.1123
					c-51.90234-0.87793-95.03418-12.78906-128.19824-35.40332c-29.05908-19.64404-46.49365-45.18605-51.82666-75.93214
					c-7.03711-6.69482-16.229-13.92188-27.34962-21.50244l-8.46094-5.7666l9.61719-3.0835
					c1.18213-0.56885,6.17775-3.80615,27.21632-21.06836c2.02832-7.17578,6.07422-15.81689,12.32666-26.33691
					c18.97217-33.79736,53.25684-57.18311,101.90137-69.50684c22.19287-5.4624,46.75732-8.22754,73.04443-8.22754
					c2.18018,0,4.37354,0.01855,6.58252,0.05615c33.38086,0.56396,64.89014,6.31152,93.69531,17.08643l14.69385-8.58057
					l26.97217,0.45605l0.47266,98.66992l-28.96191-0.48926l-1.30273-2.89258
					c-11.65869-25.88672-25.54932-45.51025-41.28516-58.32666c-12.70312-9.53906-33.29248-14.61475-61.19727-15.08643
					c-1.06738-0.01807-2.12988-0.02734-3.17773-0.02734c-29.86914,0-51.69141,7.44531-64.86035,22.12939
					c-16.26221,17.68164-24.76416,43.04199-25.31152,75.42334c-0.49707,29.41943,4.98828,54.03467,16.30469,73.16212
					c15.06982,24.80859,38.4209,37.16357,71.35645,37.72021c1.16846,0.02002,2.32715,0.02979,3.47266,0.02979
					c22.85205,0,41.25244-3.98584,54.75098-11.85352l0.78516-46.43263c0.14111-8.36279-9.55713-14.1084-28.8252-17.07812
					c-7.11816-1.12549-13.19141-1.99023-18.06982-2.57373l-4.48193-0.53662l0.38672-22.85498l187.47363,3.16992l-0.39062,23.09912
					l-4.75586,0.15576c-9.8916,0.32324-18.89551,1.40674-26.75977,3.21973l-0.12402,0.02734
					c-11.0625,2.25439-12.57812,8.24268-12.66211,13.20801l-1.32031,78.1675c-0.00293,0.12402-0.00684,0.24609-0.01367,0.36426
					l0.00684,0.00098l-1.40527,83.15137L594.74908,402.36255z"/>
				<path class="st2" d="M662.52466,219.66048c-10.27057,0.33586-19.50922,1.4519-27.71954,3.34508
					c-10.94543,2.231-16.4967,8.23849-16.66211,18.02234l-0.47693,28.21103c-0.60156,35.58191-0.88507,52.35327-0.85077,50.32184
					l-1.32123,78.15192l-17.55505-0.29678c-4.49286-9.48453-12.61829-19.79019-24.37476-30.9194
					c-11.76013-11.13165-25.88257-17.72562-42.3634-19.78299l0.4834-28.59198c-16.73395,3.14914-40.57074,4.46216-71.50961,3.93909
					c-51.1442-0.86465-92.96704-12.37436-125.46545-34.53503c-28.53949-19.29303-45.20032-44.04578-49.98187-74.25226
					c-7.41684-7.24274-17.14871-14.97137-29.19562-23.18295c2.2601-0.72453,12.24817-8.37303,29.97549-22.94591
					c1.71896-6.95987,5.8006-15.85204,12.23813-26.67725c18.35468-32.73788,51.28595-55.12374,98.7991-67.16106
					c23.6727-5.82596,49.77585-8.50132,78.31458-8.01884c33.82495,0.57185,65.23859,6.44215,94.23871,17.60963l15.54865-9.07998
					l20.6814,0.34965l0.42554,88.66811l-20.6814-0.34964c-12.05646-26.76903-26.31122-46.83953-42.76208-60.2115
					c-13.62091-10.27017-35.01749-15.65455-64.19507-16.14783c-33.1861-0.56105-57.13461,7.36092-71.84476,23.76295
					c-17.15424,18.65133-26.01709,44.87673-26.58853,78.67742c-0.51559,30.4986,5.15051,55.7625,17.00064,75.79237
					c15.91446,26.19989,41.10394,39.59119,75.57523,40.17398c26.93414,0.45535,48.01984-4.20782,63.26086-13.99301l0.83142-49.17838
					c0.19116-11.30888-10.83234-18.6783-33.06226-22.10449c-7.19757-1.13768-13.27917-2.00323-18.2381-2.59657l0.22559-13.34268
					l177.4754,3.00046L662.52466,219.66048z"/>
			</g>
		</g>
	</g>
</g>
</svg>
